<?xml version="1.0" encoding="utf-8"?>
<!-- Generator: Adobe Illustrator 22.0.1, SVG Export Plug-In . SVG Version: 6.00 Build 0)  -->
<svg version="1.1" id="Calque_1" xmlns="http://www.w3.org/2000/svg" xmlns:xlink="http://www.w3.org/1999/xlink" x="0px" y="0px"
	 viewBox="0 0 512 512" style="enable-background:new 0 0 512 512;" xml:space="preserve">
<style type="text/css">
	.st0{fill:#3AAAFF;}
	.st1{fill:#0095FF;}
	.st2{fill:#E2E2E7;}
	.st3{fill:#D3D3D8;}
</style>
<path class="st0" d="M119.8,371.7h-108c-6.4,0-11.8,4.1-11.8,9.2v61c0,5.1,5.4,9.2,11.8,9.2h108c6.4,0,11.8-4.1,11.8-9.2v-61
	C131.7,375.8,126.2,371.7,119.8,371.7z"/>
<path class="st1" d="M131.7,380.8v61c0,5.1-5.4,9.2-11.8,9.2h-54v-79.3h54C126.2,371.7,131.7,375.8,131.7,380.8z"/>
<path class="st2" d="M91.7,431.8l-7.7,6.1c-1.5,1.2-3.9,1.2-5.4,0c-1.5-1.2-1.5-3.1,0-4.3l1.1-0.9H35c-2.2,0-3.9-1.3-3.9-3.1
	c0-1.7,1.7-3.1,3.9-3.1h44.7c-2-1.6-3.5-3.4-1.1-5.2c1.5-1.2,3.9-1.2,5.4,0l7.7,6.1C93.2,428.7,93.2,430.6,91.7,431.8z"/>
<path class="st2" d="M38.8,411.3c0-1.7-1.7-3.1-3.9-3.1H23.4v-6.1H35c2.1,0,3.9-1.4,3.9-3.1s-1.7-3.1-3.9-3.1H23.4V390H35
	c2.1,0,3.9-1.4,3.9-3.1c0-1.7-1.7-3.1-3.9-3.1H19.5c-2.1,0-3.9,1.4-3.9,3.1v24.4c0,1.7,1.7,3.1,3.9,3.1H35
	C37.1,414.4,38.8,413,38.8,411.3z"/>
<path class="st2" d="M69.3,410c0.9,1.5,0.2,3.3-1.8,4.1c-0.5,0.2-1.1,0.3-1.7,0.3c-1.4,0-2.8-0.6-3.5-1.7l-4.2-6.7l-4.2,6.7
	c-1,1.5-3.2,2.1-5.2,1.4c-1.9-0.8-2.7-2.6-1.8-4.1l6.9-10.9l-6.9-10.9c-0.9-1.5-0.2-3.3,1.8-4.1c1.9-0.7,4.2-0.1,5.2,1.4l4.2,6.7
	l4.2-6.7c0.7-1.1,2.1-1.7,3.5-1.7c0.6,0,1.2,0.1,1.7,0.3c1.9,0.8,2.7,2.6,1.8,4.1l-6.9,10.9L69.3,410z"/>
<g>
	<path class="st3" d="M81.3,414.4c2.1,0,3.9-1.4,3.9-3.1v-24.4c0-1.7-1.7-3.1-3.9-3.1c-2.1,0-3.9,1.4-3.9,3.1v24.4
		C77.4,413,79.1,414.4,81.3,414.4z"/>
	<path class="st3" d="M112.1,383.9H96.7c-2.1,0-3.9,1.4-3.9,3.1c0,1.7,1.7,3.1,3.9,3.1h3.9v21.4c0,1.7,1.7,3.1,3.9,3.1
		c2.1,0,3.9-1.4,3.9-3.1V390h3.9c2.1,0,3.9-1.4,3.9-3.1C116,385.2,114.3,383.9,112.1,383.9z"/>
	<path class="st3" d="M67.5,414.1c-0.5,0.2-1.1,0.3-1.7,0.3v-9.9l3.5,5.5C70.2,411.5,69.5,413.3,67.5,414.1z"/>
	<path class="st3" d="M69.3,388.3l-3.5,5.5v-9.9c0.6,0,1.2,0.1,1.7,0.3C69.5,385,70.2,386.8,69.3,388.3z"/>
	<path class="st3" d="M91.7,431.8l-7.7,6.1c-1.5,1.2-3.9,1.2-5.4,0c-1.5-1.2-1.5-3.1,0-4.3l1.1-0.9H65.8v-6.1h13.8
		c-2-1.6-3.5-3.4-1.1-5.2c1.5-1.2,3.9-1.2,5.4,0l7.7,6.1C93.2,428.7,93.2,430.6,91.7,431.8z"/>
</g>
</svg>
